<svg width="20" height="12" viewBox="0 0 20 12" fill="none" xmlns="http://www.w3.org/2000/svg">
<path d="M19.4 0.0022583H0V11.8302H19.4V0.0022583Z" fill="#FF3B45"/>
<path d="M14.5646 0H4.89062V11.8259H14.5646V0Z" fill="white"/>
<path d="M9.41561 7.95821V10.0563H9.79122V7.89734L11.7924 8.32346L11.543 7.65486L13.4795 5.89153L12.9495 5.80022L13.2927 4.52388L12.168 4.73593L11.9176 4.1282L10.8857 5.13161L11.1977 2.79099L10.4788 3.09435L9.63472 1.66583L8.82194 3.15523L8.00916 2.69867L8.41607 5.13161L7.32159 4.03689L7.22769 4.70549L6.0706 4.46199L6.44725 5.67847L5.85254 5.89153L7.7285 7.53311L7.44679 8.20171L9.41561 7.95821Z" fill="#FF3B45"/>
</svg>
