<svg width="19" height="15" viewBox="0 0 19 15" fill="none" xmlns="http://www.w3.org/2000/svg">
<path d="M19 4.56128H0V5.70533H19V4.56128Z" fill="#DB2E2E"/>
<path d="M19 2.28052H0V3.42332H19V2.28052Z" fill="#DB2E2E"/>
<path d="M19 0H0V1.1428H19V0Z" fill="#DB2E2E"/>
<path d="M19 6.84546H0V7.98952H19V6.84546Z" fill="#DB2E2E"/>
<path d="M19 9.12366H0V10.2677H19V9.12366Z" fill="#DB2E2E"/>
<path d="M19 11.4067H0V12.5495H19V11.4067Z" fill="#DB2E2E"/>
<path d="M19 13.6847H0V14.8275H19V13.6847Z" fill="#DB2E2E"/>
<path d="M19 3.42212H0V4.56492H19V3.42212Z" fill="white"/>
<path d="M19 1.14172H0V2.28452H19V1.14172Z" fill="white"/>
<path d="M19 5.70508H0V6.84788H19V5.70508Z" fill="white"/>
<path d="M19 7.98206H0V9.12485H19V7.98206Z" fill="white"/>
<path d="M19 10.265H0V11.4078H19V10.265Z" fill="white"/>
<path d="M19 12.547H0V13.6898H19V12.547Z" fill="white"/>
<path d="M7.10477 0.0360107H0V6.94173H7.10477V0.0360107Z" fill="#2E4593"/>
<path d="M5.93646 1.4075L6.01198 1.67595L5.83213 1.50786V1.5066L5.83113 1.50786L5.65227 1.67595L5.72779 1.4075L5.72978 1.40625H5.72878L5.54297 1.24944H5.76555L5.82716 0.979736L5.89572 1.24944H5.89671H6.12128L5.93547 1.40625H5.93447L5.93646 1.4075Z" fill="white"/>
<path d="M5.93646 2.80365L6.01198 3.0696L5.83213 2.90401V2.9015L5.83113 2.90401L5.65227 3.0696L5.72779 2.80365L5.72978 2.8024H5.72878L5.54297 2.64309H5.76555L5.82716 2.37463L5.89572 2.64309V2.64559L5.89671 2.64309H6.12128L5.93547 2.8024H5.93447L5.93646 2.80365Z" fill="white"/>
<path d="M5.93646 4.19981L6.01198 4.46575L5.83213 4.29765V4.2964L5.83113 4.29765L5.65227 4.46575L5.72779 4.19981L5.72978 4.1973H5.72878L5.54297 4.03924H5.76555L5.82716 3.76953L5.89572 4.03924H5.89671H6.12128L5.93547 4.1973H5.93447L5.93646 4.19981Z" fill="white"/>
<path d="M5.93646 5.59369L6.01198 5.86089L5.83213 5.69405V5.6928L5.83113 5.69405L5.65227 5.86089L5.72779 5.59369L5.72978 5.59244H5.72878L5.54297 5.43438H5.76555L5.82716 5.16467L5.89572 5.43438V5.43563L5.89671 5.43438H6.12128L5.93547 5.59244H5.93447L5.93646 5.59369Z" fill="white"/>
<path d="M4.76363 1.4075L4.83916 1.67595L4.65929 1.50786L4.6583 1.5066V1.50786L4.47843 1.67595L4.55396 1.4075L4.55594 1.40625H4.55495L4.37012 1.24944H4.59271L4.65333 0.979736L4.72289 1.24944H4.7219H4.72289H4.94747L4.76165 1.40625H4.76065L4.76363 1.4075Z" fill="white"/>
<path d="M4.76168 2.80365L4.8372 3.0696L4.65734 2.90401L4.65634 2.9015V2.90401L4.47648 3.0696L4.552 2.80365L4.55399 2.8024H4.553L4.36816 2.64309H4.59076L4.65138 2.37463L4.72094 2.64309L4.71994 2.64559L4.72094 2.64309H4.94552L4.75969 2.8024H4.7587L4.76168 2.80365Z" fill="white"/>
<path d="M4.76168 4.19981L4.8372 4.46575L4.65734 4.29765L4.65634 4.2964V4.29765L4.47648 4.46575L4.552 4.19981L4.55399 4.1973H4.553L4.36816 4.03924H4.59076L4.65138 3.76953L4.72094 4.03924H4.71994H4.72094H4.94552L4.75969 4.1973H4.7587L4.76168 4.19981Z" fill="white"/>
<path d="M4.76168 5.59369L4.8372 5.86089L4.65734 5.69405L4.65634 5.6928V5.69405L4.47648 5.86089L4.552 5.59369L4.55399 5.59244H4.553L4.36816 5.43438H4.59076L4.65138 5.16467L4.72094 5.43438L4.71994 5.43563L4.72094 5.43438H4.94552L4.75969 5.59244H4.7587L4.76168 5.59369Z" fill="white"/>
<path d="M3.58785 1.4075L3.66336 1.67595L3.48351 1.50786L3.48252 1.5066V1.50786L3.30266 1.67595L3.37818 1.4075L3.38017 1.40625H3.37918L3.19336 1.24944H3.41693L3.47755 0.979736L3.5471 1.24944H3.54611H3.5471H3.77167L3.58586 1.40625L3.58785 1.4075Z" fill="white"/>
<path d="M3.58785 2.80365L3.66336 3.0696L3.48351 2.90401L3.48252 2.9015V2.90401L3.30266 3.0696L3.37818 2.80365L3.38017 2.8024H3.37918L3.19336 2.64309H3.41693L3.47755 2.37463L3.5471 2.64309L3.54611 2.64559L3.5471 2.64309H3.77167L3.58586 2.8024L3.58785 2.80365Z" fill="white"/>
<path d="M3.58785 4.19981L3.66336 4.46575L3.48351 4.29765L3.48252 4.2964V4.29765L3.30266 4.46575L3.37818 4.19981L3.38017 4.1973H3.37918L3.19336 4.03924H3.41693L3.47755 3.76953L3.5471 4.03924H3.54611H3.5471H3.77167L3.58586 4.1973L3.58785 4.19981Z" fill="white"/>
<path d="M3.58785 5.59369L3.66336 5.86089L3.48351 5.69405L3.48252 5.6928V5.69405L3.30266 5.86089L3.37818 5.59369L3.38017 5.59244H3.37918L3.19336 5.43438H3.41693L3.47755 5.16467L3.5471 5.43438L3.54611 5.43563L3.5471 5.43438H3.77167L3.58586 5.59244L3.58785 5.59369Z" fill="white"/>
<path d="M2.4316 1.4075L2.50612 1.67595L2.32627 1.50786V1.5066V1.50786L2.14641 1.67595L2.22193 1.4075L2.22392 1.40625H2.22293L2.03711 1.24944H2.26068L2.3213 0.979736L2.39085 1.24944H2.38986H2.39085H2.61542L2.42961 1.40625L2.4316 1.4075Z" fill="white"/>
<path d="M2.4316 2.80365L2.50612 3.0696L2.32627 2.90401V2.9015V2.90401L2.14641 3.0696L2.22193 2.80365L2.22392 2.8024H2.22293L2.03711 2.64309H2.26068L2.3213 2.37463L2.39085 2.64309L2.38986 2.64559L2.39085 2.64309H2.61542L2.42961 2.8024L2.4316 2.80365Z" fill="white"/>
<path d="M2.4316 4.19981L2.50612 4.46575L2.32627 4.29765V4.2964V4.29765L2.14641 4.46575L2.22193 4.19981L2.22392 4.1973H2.22293L2.03711 4.03924H2.26068L2.3213 3.76953L2.39085 4.03924H2.38986H2.39085H2.61542L2.42961 4.1973L2.4316 4.19981Z" fill="white"/>
<path d="M2.4316 5.59369L2.50612 5.86089L2.32627 5.69405V5.6928V5.69405L2.14641 5.86089L2.22193 5.59369L2.22392 5.59244H2.22293L2.03711 5.43438H2.26068L2.3213 5.16467L2.39085 5.43438L2.38986 5.43563L2.39085 5.43438H2.61542L2.42961 5.59244L2.4316 5.59369Z" fill="white"/>
<path d="M1.27632 1.4075L1.35085 1.67595L1.17099 1.50786V1.5066V1.50786L0.992133 1.67595L1.06666 1.4075L1.06865 1.40625H1.06765L0.881836 1.24944H1.10541L1.16602 0.979736L1.23558 1.24944H1.46015L1.27433 1.40625H1.27334L1.27632 1.4075Z" fill="white"/>
<path d="M1.27437 2.80365L1.34889 3.0696L1.16904 2.90401V2.9015V2.90401L0.99018 3.0696L1.06471 2.80365L1.06669 2.8024H1.0657L0.879883 2.64309H1.10346L1.16407 2.37463L1.23363 2.64309V2.64559V2.64309H1.4582L1.27238 2.8024H1.27139L1.27437 2.80365Z" fill="white"/>
<path d="M1.27437 4.19981L1.34889 4.46575L1.16904 4.29765V4.2964V4.29765L0.99018 4.46575L1.06471 4.19981L1.06669 4.1973H1.0657L0.879883 4.03924H1.10346L1.16407 3.76953L1.23363 4.03924H1.4582L1.27238 4.1973H1.27139L1.27437 4.19981Z" fill="white"/>
<path d="M1.27437 5.59369L1.34889 5.86089L1.16904 5.69405V5.6928V5.69405L0.99018 5.86089L1.06471 5.59369L1.06669 5.59244H1.0657L0.879883 5.43438H1.10346L1.16407 5.16467L1.23363 5.43438V5.43563V5.43438H1.4582L1.27238 5.59244H1.27139L1.27437 5.59369Z" fill="white"/>
<path d="M6.50775 2.10523L6.58228 2.37243L6.40342 2.20559V2.20433V2.20559L6.22356 2.37243L6.29809 2.10523L6.30107 2.10272H6.29908L6.11426 1.94591H6.33684L6.39745 1.67621L6.46602 1.94591V1.94717L6.46701 1.94591H6.69257L6.50676 2.10272H6.50576L6.50775 2.10523Z" fill="white"/>
<path d="M6.50775 3.50135L6.58228 3.76729L6.40342 3.59919L6.22356 3.76729L6.29809 3.50135L6.30107 3.49884H6.29908L6.11426 3.34078H6.33684L6.39745 3.07233L6.46602 3.34078H6.46701H6.69257L6.50676 3.49884H6.50576L6.50775 3.50135Z" fill="white"/>
<path d="M6.50775 4.89759L6.58228 5.16478L6.40342 4.99669V4.99543V4.99669L6.22356 5.16478L6.29809 4.89759L6.30107 4.89508H6.29908L6.11426 4.73702L6.33684 4.73827L6.39745 4.46857L6.46602 4.73702V4.73827H6.46701L6.69257 4.73702L6.50676 4.89508H6.50576L6.50775 4.89759Z" fill="white"/>
<path d="M6.50775 6.29373L6.58228 6.56218L6.40342 6.39409V6.39283V6.39409L6.22356 6.56218L6.29809 6.29373L6.30107 6.29248H6.29908L6.11426 6.13567H6.33684L6.39745 5.86597L6.46602 6.13567V6.13693L6.46701 6.13567H6.69257L6.50676 6.29248H6.50576L6.50775 6.29373Z" fill="white"/>
<path d="M6.50873 0.716252L6.58325 0.982195L6.40439 0.815353V0.814099V0.815353L6.22454 0.982195L6.29906 0.716252L6.30204 0.713743H6.30006L6.11523 0.555683H6.33782L6.39843 0.287231L6.46699 0.555683V0.556938L6.46799 0.555683H6.69355L6.50773 0.713743H6.50674L6.50873 0.716252Z" fill="white"/>
<path d="M5.35736 2.10523L5.43288 2.37243L5.25302 2.20559V2.20433V2.20559L5.07317 2.37243L5.1477 2.10523L5.15068 2.10272H5.14968L4.96387 1.94591H5.18744L5.24806 1.67621L5.31662 1.94591V1.94717L5.31761 1.94591H5.54218L5.35637 2.10272L5.35736 2.10523Z" fill="white"/>
<path d="M5.35736 3.50135L5.43288 3.76729L5.25302 3.59919L5.07317 3.76729L5.1477 3.50135L5.15068 3.49884H5.14968L4.96387 3.34078H5.18744L5.24806 3.07233L5.31662 3.34078H5.31761H5.54218L5.35637 3.49884L5.35736 3.50135Z" fill="white"/>
<path d="M5.35736 4.89759L5.43288 5.16478L5.25302 4.99669V4.99543V4.99669L5.07317 5.16478L5.1477 4.89759L5.15068 4.89508H5.14968L4.96387 4.73702L5.18744 4.73827L5.24806 4.46857L5.31662 4.73702V4.73827H5.31761L5.54218 4.73702L5.35637 4.89508L5.35736 4.89759Z" fill="white"/>
<path d="M5.35736 6.29373L5.43288 6.56218L5.25302 6.39409V6.39283V6.39409L5.07317 6.56218L5.1477 6.29373L5.15068 6.29248H5.14968L4.96387 6.13567H5.18744L5.24806 5.86597L5.31662 6.13567V6.13693L5.31761 6.13567H5.54218L5.35637 6.29248L5.35736 6.29373Z" fill="white"/>
<path d="M5.35834 0.716252L5.43385 0.982195L5.254 0.815353V0.814099V0.815353L5.07415 0.982195L5.14867 0.716252L5.15165 0.713743H5.15066L4.96484 0.555683H5.18842L5.24903 0.287231L5.3176 0.555683V0.556938L5.31859 0.555683H5.54316L5.35734 0.713743L5.35834 0.716252Z" fill="white"/>
<path d="M4.16207 2.10523L4.23759 2.37243L4.05773 2.20559L4.05674 2.20433V2.20559L3.87786 2.37243L3.95239 2.10523L3.95438 2.10272H3.95339L3.76855 1.94591H3.99115L4.05276 1.67621L4.12033 1.94591V1.94717L4.12133 1.94591H4.34591L4.16108 2.10272H4.16008L4.16207 2.10523Z" fill="white"/>
<path d="M4.16207 3.50135L4.23759 3.76729L4.05773 3.59919H4.05674L3.87786 3.76729L3.95239 3.50135L3.95438 3.49884H3.95339L3.76855 3.34078H3.99115L4.05276 3.07233L4.12033 3.34078H4.12133H4.34591L4.16108 3.49884H4.16008L4.16207 3.50135Z" fill="white"/>
<path d="M4.16207 4.89759L4.23759 5.16478L4.05773 4.99669L4.05674 4.99543V4.99669L3.87786 5.16478L3.95239 4.89759L3.95438 4.89508H3.95339L3.76855 4.73702L3.99115 4.73827L4.05276 4.46857L4.12033 4.73702V4.73827H4.12133L4.34591 4.73702L4.16108 4.89508H4.16008L4.16207 4.89759Z" fill="white"/>
<path d="M4.16207 6.29373L4.23759 6.56218L4.05773 6.39409L4.05674 6.39283V6.39409L3.87786 6.56218L3.95239 6.29373L3.95438 6.29248H3.95339L3.76855 6.13567H3.99115L4.05276 5.86597L4.12033 6.13567V6.13693L4.12133 6.13567H4.34591L4.16108 6.29248H4.16008L4.16207 6.29373Z" fill="white"/>
<path d="M4.16402 0.716252L4.23955 0.982195L4.05968 0.815353L4.05869 0.814099V0.815353L3.87982 0.982195L3.95435 0.716252L3.95633 0.713743H3.95534L3.77051 0.555683H3.9931L4.05471 0.287231L4.12229 0.555683V0.556938L4.12328 0.555683H4.34786L4.16303 0.713743H4.16204L4.16402 0.716252Z" fill="white"/>
<path d="M2.9941 2.10523L3.06863 2.37243L2.88976 2.20559L2.88877 2.20433V2.20559L2.7089 2.37243L2.78443 2.10523L2.78641 2.10272H2.78443L2.60059 1.94591H2.82318L2.8838 1.67621L2.95236 1.94591V1.94717V1.94591H3.17794L2.99211 2.10272L2.9941 2.10523Z" fill="white"/>
<path d="M2.9941 3.50135L3.06863 3.76729L2.88976 3.59919H2.88877L2.7089 3.76729L2.78443 3.50135L2.78641 3.49884H2.78443L2.60059 3.34078H2.82318L2.8838 3.07233L2.95236 3.34078H3.17794L2.99211 3.49884L2.9941 3.50135Z" fill="white"/>
<path d="M2.9941 4.89759L3.06863 5.16478L2.88976 4.99669L2.88877 4.99543V4.99669L2.7089 5.16478L2.78443 4.89759L2.78641 4.89508H2.78443L2.60059 4.73702L2.82318 4.73827L2.8838 4.46857L2.95236 4.73702V4.73827L3.17794 4.73702L2.99211 4.89508L2.9941 4.89759Z" fill="white"/>
<path d="M2.9941 6.29373L3.06863 6.56218L2.88976 6.39409L2.88877 6.39283V6.39409L2.7089 6.56218L2.78443 6.29373L2.78641 6.29248H2.78443L2.60059 6.13567H2.82318L2.8838 5.86597L2.95236 6.13567V6.13693V6.13567H3.17794L2.99211 6.29248L2.9941 6.29373Z" fill="white"/>
<path d="M2.99698 0.716252L3.0715 0.982195L2.89265 0.815353L2.89166 0.814099V0.815353L2.71182 0.982195L2.78733 0.716252L2.78932 0.713743H2.78733L2.60352 0.555683H2.82608L2.88669 0.287231L2.95525 0.555683V0.556938V0.555683H3.18079L2.99499 0.713743L2.99698 0.716252Z" fill="white"/>
<path d="M1.84955 2.10523L1.92507 2.37243L1.74521 2.20559V2.20433L1.74422 2.20559L1.56536 2.37243L1.64088 2.10523L1.64286 2.10272H1.64187L1.45605 1.94591H1.67864L1.74024 1.67621L1.80881 1.94591V1.94717L1.8098 1.94591H2.03437L1.84855 2.10272H1.84756L1.84955 2.10523Z" fill="white"/>
<path d="M1.84955 3.50135L1.92507 3.76729L1.74521 3.59919H1.74422L1.56536 3.76729L1.64088 3.50135L1.64286 3.49884H1.64187L1.45605 3.34078H1.67864L1.74024 3.07233L1.80881 3.34078H1.8098H2.03437L1.84855 3.49884H1.84756L1.84955 3.50135Z" fill="white"/>
<path d="M1.84955 4.89759L1.92507 5.16478L1.74521 4.99669V4.99543L1.74422 4.99669L1.56536 5.16478L1.64088 4.89759L1.64286 4.89508H1.64187L1.45605 4.73702L1.67864 4.73827L1.74024 4.46857L1.80881 4.73702V4.73827H1.8098L2.03437 4.73702L1.84855 4.89508H1.84756L1.84955 4.89759Z" fill="white"/>
<path d="M1.84955 6.29373L1.92507 6.56218L1.74521 6.39409V6.39283L1.74422 6.39409L1.56536 6.56218L1.64088 6.29373L1.64286 6.29248H1.64187L1.45605 6.13567H1.67864L1.74024 5.86597L1.80881 6.13567V6.13693L1.8098 6.13567H2.03437L1.84855 6.29248H1.84756L1.84955 6.29373Z" fill="white"/>
<path d="M1.8515 0.716252L1.92702 0.982195L1.74717 0.815353V0.814099L1.74617 0.815353L1.56731 0.982195L1.64283 0.716252L1.64482 0.713743H1.64382L1.45801 0.555683H1.68059L1.7422 0.287231L1.81076 0.555683V0.556938L1.81175 0.555683H2.03632L1.85051 0.713743H1.84951L1.8515 0.716252Z" fill="white"/>
<path d="M0.685484 2.10517L0.761003 2.37237L0.582143 2.20552L0.581149 2.20427V2.20552L0.401296 2.37237L0.476814 2.10517L0.478802 2.10266H0.477808L0.291992 1.94585H0.514574L0.575187 1.67615L0.644744 1.94585V1.94711V1.94585H0.870307L0.684491 2.10266H0.683497L0.685484 2.10517Z" fill="white"/>
<path d="M0.685484 3.50129L0.761003 3.76723L0.582143 3.59913H0.581149L0.401296 3.76723L0.476814 3.50129L0.478802 3.49878H0.477808L0.291992 3.34072H0.514574L0.575187 3.07227L0.644744 3.34072H0.870307L0.684491 3.49878H0.683497L0.685484 3.50129Z" fill="white"/>
<path d="M0.685484 4.89753L0.761003 5.16472L0.582143 4.99663L0.581149 4.99537V4.99663L0.401296 5.16472L0.476814 4.89753L0.478802 4.89502H0.477808L0.291992 4.73696L0.514574 4.73821L0.575187 4.46851L0.644744 4.73696V4.73821L0.870307 4.73696L0.684491 4.89502H0.683497L0.685484 4.89753Z" fill="white"/>
<path d="M0.685484 6.29361L0.761003 6.56206L0.582143 6.39396L0.581149 6.39271V6.39396L0.401296 6.56206L0.476814 6.29361L0.478802 6.29236H0.477808L0.291992 6.13555H0.514574L0.575187 5.86584L0.644744 6.13555V6.1368V6.13555H0.870307L0.684491 6.29236H0.683497L0.685484 6.29361Z" fill="white"/>
<path d="M0.685484 0.716251L0.761003 0.982192L0.582143 0.815351L0.581149 0.814097V0.815351L0.401296 0.982192L0.476814 0.716251L0.478802 0.713742H0.477808L0.291992 0.555682H0.514574L0.575187 0.287231L0.644744 0.555682V0.556937V0.555682H0.870307L0.684491 0.713742H0.683497L0.685484 0.716251Z" fill="white"/>
</svg>
