<svg width="89" height="90" viewBox="0 0 89 90" fill="none" xmlns="http://www.w3.org/2000/svg">
<path d="M43.1008 10.5005C42.2696 10.5005 41.5967 9.7989 41.5967 8.93221V2.66198C41.5967 1.79529 42.2696 1.09369 43.1008 1.09369C43.932 1.09369 44.6049 1.79529 44.6049 2.66198V8.93221C44.6049 9.7989 43.9292 10.5005 43.1008 10.5005Z" fill="#3A3F4E"/>
<path d="M31.2714 12.6761C30.6579 12.6761 30.0811 12.281 29.8578 11.6443L27.7995 5.7514C27.5168 4.93777 27.9183 4.03866 28.6986 3.74092C29.4789 3.44318 30.3412 3.86473 30.6268 4.67835L32.685 10.5712C32.9678 11.3849 32.5663 12.284 31.786 12.5817C31.6163 12.6436 31.4439 12.6761 31.2714 12.6761Z" fill="#3A3F4E"/>
<path d="M20.8729 18.9374C20.4431 18.9374 20.019 18.7458 19.7193 18.3773L15.8545 13.5722C15.3201 12.9089 15.4049 11.9214 16.0411 11.3642C16.6772 10.8071 17.6243 10.8955 18.1587 11.5588L22.0236 16.3639C22.5579 17.0272 22.4731 18.0147 21.837 18.5719C21.5571 18.8166 21.2122 18.9374 20.8729 18.9374Z" fill="#3A3F4E"/>
<path d="M13.1493 28.53C12.8948 28.53 12.6347 28.4622 12.4 28.3207L7.19218 25.1841C6.47405 24.7507 6.22525 23.7927 6.64086 23.0439C7.05647 22.2951 7.97533 22.0357 8.69346 22.4691L13.9013 25.6056C14.6194 26.039 14.8682 26.9971 14.4526 27.7458C14.1756 28.247 13.6695 28.53 13.1493 28.53Z" fill="#3A3F4E"/>
<path d="M9.0469 40.2951C8.95925 40.2951 8.87161 40.2863 8.78396 40.2715L2.8608 39.1838C2.04372 39.0334 1.49805 38.2198 1.64225 37.3678C1.78644 36.5159 2.56677 35.9469 3.38385 36.0973L9.30701 37.1851C10.1241 37.3354 10.6698 38.149 10.5256 39.001C10.3955 39.7615 9.7622 40.2951 9.0469 40.2951Z" fill="#3A3F4E"/>
<path d="M3.11798 53.9086C2.40268 53.9086 1.76654 53.3721 1.63932 52.6115C1.49513 51.7596 2.04079 50.946 2.85787 50.7956L8.78103 49.7078C9.59811 49.5575 10.3784 50.1264 10.5226 50.9784C10.6668 51.8303 10.1212 52.644 9.30408 52.7943L3.38092 53.8821C3.29328 53.8998 3.20563 53.9086 3.11798 53.9086Z" fill="#3A3F4E"/>
<path d="M7.94387 67.7226C7.42365 67.7226 6.91757 67.4425 6.6405 66.9384C6.22489 66.1897 6.47086 65.2286 7.19182 64.7982L12.3997 61.6617C13.1178 61.2283 14.0395 61.4848 14.4523 62.2365C14.8679 62.9853 14.6219 63.9463 13.901 64.3767L8.6931 67.5133C8.45844 67.6548 8.19833 67.7226 7.94387 67.7226Z" fill="#3A3F4E"/>
<path d="M78.2557 67.7226C78.0012 67.7226 77.7411 67.6548 77.5065 67.5133L72.2986 64.3767C71.5805 63.9433 71.3317 62.9852 71.7473 62.2365C72.1629 61.4877 73.0818 61.2312 73.7999 61.6616L79.0078 64.7982C79.7259 65.2316 79.9747 66.1896 79.5591 66.9384C79.282 67.4425 78.7759 67.7226 78.2557 67.7226Z" fill="#3A3F4E"/>
<path d="M83.0821 53.9086C82.9944 53.9086 82.9068 53.8998 82.8191 53.885L76.896 52.7972C76.0789 52.6469 75.5332 51.8333 75.6774 50.9813C75.8216 50.1294 76.6019 49.5575 77.419 49.7108L83.3422 50.7986C84.1593 50.9489 84.7049 51.7625 84.5607 52.6145C84.4335 53.3721 83.7974 53.9086 83.0821 53.9086Z" fill="#3A3F4E"/>
<path d="M77.1561 40.2951C76.4408 40.2951 75.8046 39.7586 75.6774 38.998C75.5332 38.1461 76.0789 37.3325 76.896 37.1821L82.8191 36.0943C83.6362 35.944 84.4165 36.5129 84.5607 37.3649C84.7049 38.2168 84.1593 39.0305 83.3422 39.1808L77.419 40.2686C77.3314 40.2892 77.2437 40.2951 77.1561 40.2951Z" fill="#3A3F4E"/>
<path d="M73.0503 28.53C72.5301 28.53 72.024 28.2499 71.7469 27.7458C71.3313 26.9971 71.5773 26.036 72.2983 25.6056L77.5061 22.4691C78.2242 22.0357 79.1459 22.2922 79.5587 23.0439C79.9715 23.7956 79.7283 24.7537 79.0074 25.1841L73.8024 28.3177C73.5649 28.4622 73.3048 28.53 73.0503 28.53Z" fill="#3A3F4E"/>
<path d="M65.3291 18.9374C64.987 18.9374 64.6449 18.8166 64.3622 18.5719C63.726 18.0147 63.644 17.0272 64.1756 16.3639L68.0404 11.5588C68.5748 10.8955 69.5219 10.81 70.1581 11.3642C70.7942 11.9214 70.8762 12.9089 70.3447 13.5722L66.4798 18.3773C66.1829 18.7458 65.7588 18.9374 65.3291 18.9374Z" fill="#3A3F4E"/>
<path d="M54.928 12.6761C54.7584 12.6761 54.5831 12.6466 54.4134 12.5817C53.6331 12.2869 53.2316 11.3849 53.5143 10.5713L55.5726 4.67837C55.8553 3.86474 56.7205 3.44614 57.5008 3.74093C58.2812 4.03572 58.6826 4.93778 58.3999 5.75141L56.3416 11.6443C56.1183 12.2811 55.5415 12.6761 54.928 12.6761Z" fill="#3A3F4E"/>
<path d="M43.1012 76.3453C26.5192 76.3453 13.0303 62.2807 13.0303 44.9912C13.0303 27.7016 26.5192 13.6371 43.1012 13.6371C59.6833 13.6371 73.1722 27.7016 73.1722 44.9912C73.1722 62.2807 59.6833 76.3453 43.1012 76.3453ZM43.1012 16.7707C28.1789 16.7707 16.0357 29.4291 16.0357 44.9912C16.0357 60.5503 28.176 73.2116 43.1012 73.2116C58.0265 73.2116 70.1668 60.5532 70.1668 44.9912C70.164 29.4291 58.0236 16.7707 43.1012 16.7707Z" fill="#3A3F4E"/>
<path d="M2.50391 87.3174H56.6322V84.1808C56.6322 75.5228 49.9005 68.5038 41.5967 68.5038V65.3672C41.5967 61.9034 38.9052 59.097 35.5831 59.097H32.5749C29.2528 59.097 26.5612 61.9034 26.5612 65.3672H23.553C18.5713 65.3672 14.5312 69.5798 14.5312 74.774H11.5258C6.54409 74.774 2.50391 78.9866 2.50391 84.1808V87.3174Z" fill="#76A9D7"/>
<path d="M56.6324 88.8857H2.50411C1.67289 88.8857 1 88.1841 1 87.3174V84.1808C1 78.1287 5.72156 73.2057 11.526 73.2057H13.1375C13.8698 67.8936 18.2634 63.7989 23.5561 63.7989H25.21C25.9083 60.226 28.9477 57.5287 32.5779 57.5287H35.5861C39.7309 57.5287 43.1039 61.0456 43.1039 65.3672V67.0063C51.5235 67.7992 58.1394 75.1985 58.1394 84.1808V87.3174C58.1365 88.1841 57.4636 88.8857 56.6324 88.8857ZM4.00823 85.7521H55.1311V84.1838C55.1311 76.4042 49.061 70.075 41.5998 70.075C40.7685 70.075 40.0956 69.3734 40.0956 68.5067V65.3702C40.0956 62.776 38.0713 60.6682 35.5861 60.6682H32.5779C30.0899 60.6682 28.0684 62.7789 28.0684 65.3702C28.0684 66.2368 27.3955 66.9384 26.5643 66.9384H23.5532C19.4084 66.9384 16.0355 70.4553 16.0355 74.777C16.0355 75.6437 15.3626 76.3453 14.5314 76.3453H11.526C7.38117 76.3453 4.00823 79.8621 4.00823 84.1838V85.7521Z" fill="#3A3F4E"/>
<path d="M62.6458 87.3174H83.6949C83.6949 78.6594 76.9632 71.6404 68.6595 71.6404V65.3701C68.6595 61.9063 65.9679 59.0999 62.6458 59.0999H59.6376C56.3155 59.0999 53.624 61.9063 53.624 65.3701H47.6104C55.0715 68.2856 60.5112 75.0777 61.9362 83.2522L62.6458 87.3174Z" fill="#76A9D7"/>
<path d="M83.698 88.8857H62.6489C61.9223 88.8857 61.3003 88.3433 61.1702 87.5975L60.4606 83.5323C59.1374 75.9443 54.0116 69.5473 47.0847 66.8382C46.4034 66.5729 46.0047 65.8359 46.1319 65.0901C46.262 64.3443 46.884 63.8018 47.6106 63.8018H52.2728C52.9711 60.229 56.0076 57.5316 59.6407 57.5316H62.6489C66.7937 57.5316 70.1667 61.0485 70.1667 65.3701V70.1428C78.5835 70.9358 85.2021 78.3351 85.2021 87.3174C85.1993 88.1841 84.5264 88.8857 83.698 88.8857ZM63.9014 85.7521H82.1091C81.3599 78.7065 75.612 73.2116 68.6597 73.2116C67.8285 73.2116 67.1556 72.51 67.1556 71.6433V65.3731C67.1556 62.7789 65.1313 60.6711 62.6461 60.6711H59.6379C57.1499 60.6711 55.1283 62.7819 55.1283 65.3731C55.1283 66.2398 54.4555 66.9414 53.6242 66.9414H53.6101C58.6879 70.7059 62.2785 76.4573 63.4151 82.9751L63.9014 85.7521Z" fill="#3A3F4E"/>
</svg>
