<svg width="71" height="88" viewBox="0 0 71 88" fill="none" xmlns="http://www.w3.org/2000/svg">
<path d="M36.0629 17.0491C36.0629 17.0491 29.2805 14.3925 28.2066 17.1502C27.1355 19.9079 22.6388 24.9741 29.3523 32.218C36.0658 39.4618 36.0629 39.4618 36.0629 39.4618L45.8748 27.1399C45.8748 27.1399 47.6953 21.0681 45.7628 19.0809C43.8303 17.0937 41.3063 14.1902 36.0629 17.0491Z" fill="#76A9D7"/>
<path d="M68.4474 6.63102C46.8309 -0.66042 25.0394 -0.660421 3.67561 6.63399C3.10132 6.83033 2.71654 7.38366 2.71654 8.00839V30.7038C2.71654 33.3455 2.88596 35.9872 3.2133 38.5813C2.24849 38.8996 1.54785 39.8337 1.54785 40.9374V63.5911C1.54785 64.9476 2.61891 66.0483 3.93404 66.0483H10.7165C11.776 66.0483 12.6719 65.3284 12.9792 64.3348C18.277 72.251 25.5993 79.5841 35.2618 86.6643C35.5001 86.8368 35.7787 86.929 36.0687 86.929C36.3587 86.929 36.6372 86.8368 36.8756 86.6643C49.8718 77.1417 58.7246 67.0687 63.9363 55.8802L66.2679 54.7111C66.6326 54.5296 66.8997 54.1934 67.0088 53.7889C67.115 53.3843 67.049 52.9529 66.825 52.6049C66.5292 52.1408 66.1962 51.7124 65.8372 51.3138C68.2119 44.8285 69.4208 37.9 69.4208 30.7008V8.00839C69.4122 7.38069 69.0246 6.82736 68.4474 6.63102ZM10.2915 60.2265V63.1538H4.34179V41.3628H10.2915V43.8706V60.2265ZM26.6445 23.0167C26.6445 20.0239 28.7981 17.5875 31.4485 17.5875C32.7895 17.5875 34.0816 18.236 34.9919 19.3635C35.2589 19.6937 35.6494 19.8841 36.0658 19.8841C36.4793 19.8841 36.8698 19.6967 37.1369 19.3665C38.0529 18.236 39.345 17.5875 40.6803 17.5875C43.3278 17.5875 45.4842 20.0239 45.4842 23.0167C45.4842 27.1994 40.4218 33.4407 36.0658 37.5371C31.7069 33.4407 26.6445 27.1994 26.6445 23.0167ZM66.6183 9.06447V22.2283H48.2437C47.879 18.007 44.6285 14.69 40.6803 14.69C39.0263 14.69 37.3896 15.2998 36.0658 16.4095C34.7449 15.2998 33.1082 14.69 31.4485 14.69C27.5002 14.69 24.2497 18.004 23.885 22.2283H5.51048V9.0615C25.6653 2.39776 46.2251 2.39776 66.6183 9.06447ZM40.0629 64.6293C36.8583 66.2328 33.246 66.4321 29.8835 65.1916L13.0883 59.1912V45.3164H22.7307C23.506 45.3164 24.2928 45.3997 25.0652 45.5633L25.6251 45.6942C28.0975 46.313 30.32 47.6695 32.0515 49.6181C32.3157 49.9156 32.689 50.0851 33.0795 50.0851H41.3723C42.3917 50.0851 43.3019 50.7872 43.4886 51.7183C43.6235 52.4115 43.4196 53.1225 42.943 53.6163C42.7736 53.7918 42.5869 53.9257 42.3888 54.0179C42.3629 54.0298 42.3371 54.0387 42.3113 54.0506C42.2538 54.0685 42.1964 54.0893 42.1476 54.1131L42.0844 54.1369C41.9293 54.1875 41.7283 54.2172 41.5245 54.2172H26.2253C25.4557 54.2172 24.8269 54.8658 24.8269 55.666C24.8269 56.4663 25.4528 57.1148 26.2253 57.1148H41.5245C42.0385 57.1148 42.5438 57.0345 42.9889 56.8798C43.0148 56.8708 43.0492 56.8589 43.0722 56.85C43.1038 56.8381 43.1325 56.8262 43.1583 56.8173C43.2387 56.7905 43.322 56.7578 43.4053 56.7191C43.411 56.7161 43.4168 56.7132 43.4225 56.7102C43.4254 56.7072 43.4311 56.7072 43.434 56.7072L56.2838 51.519C57.0735 51.2007 57.9062 51.0401 58.7619 51.0401C60.5049 51.0401 62.156 51.7064 63.4223 52.9202L40.0629 64.6293ZM28.9589 67.9255C30.7048 68.5681 32.5138 68.8953 34.3372 68.8953C36.7435 68.8953 39.0808 68.336 41.2804 67.2353L59.7095 57.9983C54.6844 67.1848 46.9114 75.6304 36.0658 83.7043C27.259 77.1476 20.5254 70.3917 15.5865 63.1478L28.9589 67.9255ZM58.7648 48.1425C57.5588 48.1425 56.3843 48.3716 55.2702 48.8208L46.3112 52.4383C46.3342 52.0069 46.3055 51.5726 46.2222 51.1442C45.7628 48.8535 43.7211 47.1935 41.3665 47.1935H33.671C31.6323 45.0725 29.068 43.582 26.254 42.877L25.6452 42.7372C24.6689 42.5289 23.6869 42.4248 22.7221 42.4248H13.0854V40.9403C13.0854 39.5778 12.0201 38.4682 10.7136 38.4682H6.01586C5.6799 35.9158 5.51048 33.3098 5.51048 30.7067V25.1229H24.1004C24.7321 27.9342 26.5699 31.1797 29.5964 34.8061C32.3472 38.0993 35.0464 40.4703 35.1613 40.5685C35.414 40.7886 35.7327 40.9106 36.0629 40.9106C36.3932 40.9106 36.7119 40.7886 36.9646 40.5685C37.0794 40.4703 39.7786 38.0993 42.5295 34.8061C45.556 31.1797 47.3938 27.9371 48.0255 25.1229H66.6183V30.7038C66.6183 37.2336 65.5759 43.5255 63.5228 49.4336C62.0928 48.6007 60.4618 48.1425 58.7648 48.1425Z" fill="#3A3F4E"/>
</svg>
