<svg width="79" height="98" viewBox="0 0 79 98" fill="none" xmlns="http://www.w3.org/2000/svg">
<path d="M33.7258 41.0066C33.2937 40.6625 32.7621 40.5171 32.2249 40.5913C31.6876 40.6655 31.2101 40.9562 30.8832 41.4071C24.7402 49.8113 19.7201 59.4289 15.9621 69.9898C13.7448 76.2166 10.959 85.6502 10.2654 95.2292C10.2256 95.7929 10.3962 96.3417 10.7487 96.7689C11.1012 97.199 11.593 97.4571 12.1359 97.4986C12.1871 97.5016 12.2411 97.5046 12.2922 97.5046C12.7783 97.5046 13.2417 97.3266 13.6112 96.9914C14.0234 96.6235 14.2707 96.1103 14.3105 95.5437C14.9672 86.4571 17.6393 77.4299 19.7656 71.4583C23.3842 61.2919 28.2111 52.0422 34.1096 43.9702C34.7861 43.0476 34.6155 41.7156 33.7258 41.0066Z" fill="#3A3F4E"/>
<path fill-rule="evenodd" clip-rule="evenodd" d="M37.7736 15.3578C37.4098 15.2243 36.9493 15.1057 36.6849 15.1086C35.6416 15.1146 35.4853 13.4029 37.2534 13.7084C36.5115 11.976 38.598 13.6194 38.6151 13.6046C38.9562 13.3168 39.5389 12.9015 39.9483 13.3198C40.1501 13.5245 40.1558 13.7648 40.0819 13.9962C40.3803 14.017 40.6731 14.1267 40.7357 14.5005C40.8494 15.165 39.9198 15.3608 39.5076 15.5596C38.237 16.1766 37.694 29.3629 37.6343 30.9174C37.9868 32.2464 38.1204 34.412 36.7929 34.8718C35.6758 33.6347 36.2016 32.0358 36.9095 30.8581C37.08 26.1264 36.9606 20.1814 37.7736 15.3578Z" fill="#76A9D7"/>
<path fill-rule="evenodd" clip-rule="evenodd" d="M27.4009 18.0277C26.9802 18.0188 26.4657 18.0603 26.1956 18.1582C25.1211 18.5379 24.3962 16.8233 26.3236 16.5088C24.9875 14.984 27.6823 15.9392 27.6966 15.9185C27.9552 15.5002 28.4243 14.8624 28.9814 15.1501C29.2572 15.2896 29.3425 15.5358 29.3425 15.7998C29.658 15.7138 29.9963 15.7257 30.181 16.0876C30.5165 16.7343 29.621 17.2653 29.2572 17.6213C28.1457 18.713 31.9037 32.5341 32.35 34.1598C33.1488 35.4058 33.9959 37.598 32.7764 38.5473C31.2158 37.6692 31.2357 35.827 31.5825 34.3556C30.2066 29.4015 28.14 23.3022 27.4009 18.0277Z" fill="#3A3F4E"/>
<path fill-rule="evenodd" clip-rule="evenodd" d="M20.715 21.2405C20.3085 21.3473 19.8196 21.5253 19.5808 21.6914C18.637 22.347 17.5113 20.8904 19.2965 20.0657C17.6279 18.9533 20.4677 19.1491 20.4762 19.1224C20.6212 18.6477 20.9168 17.9061 21.5252 18.0337C21.8265 18.096 21.9686 18.3095 22.034 18.5647C22.3183 18.3956 22.6452 18.3155 22.9152 18.6151C23.3985 19.1491 22.6651 19.9056 22.4035 20.3446C21.6019 21.6974 28.6574 34.0352 29.4931 35.4859C30.5733 36.4737 31.9349 38.3634 30.9912 39.6094C29.2657 39.1822 28.8279 37.3993 28.7995 35.8834C26.2468 31.4692 22.739 26.1353 20.715 21.2405Z" fill="#76A9D7"/>
<path fill-rule="evenodd" clip-rule="evenodd" d="M13.4602 22.9285C13.0424 23.1717 12.5591 23.5218 12.3459 23.7799C11.496 24.7974 9.83871 23.5485 11.5642 22.08C9.40947 21.3829 12.5875 20.7036 12.5875 20.6739C12.6103 20.1073 12.7212 19.1995 13.4261 19.1461C13.7729 19.1194 13.9947 19.3093 14.1396 19.5703C14.4012 19.2974 14.7423 19.1046 15.1232 19.3478C15.8083 19.7839 15.2198 20.843 15.0607 21.4126C14.5689 23.1539 25.8883 34.498 27.2272 35.83C28.6997 36.5776 30.7435 38.224 30.067 39.8912C28.0487 39.9654 27.0509 38.1409 26.5819 36.4826C22.4942 32.4363 17.096 27.675 13.4602 22.9285Z" fill="#3A3F4E"/>
<path fill-rule="evenodd" clip-rule="evenodd" d="M9.38136 32.4066C9.10562 32.7388 8.80714 33.1749 8.70196 33.4568C8.28978 34.5603 6.56714 34.0412 7.57343 32.2968C5.59779 32.3888 8.02541 30.8432 8.01973 30.8195C7.8776 30.3448 7.70988 29.5617 8.27841 29.2977C8.55699 29.1671 8.79293 29.2561 8.98623 29.4252C9.12552 29.1167 9.35009 28.8556 9.73669 28.9357C10.4274 29.0841 10.2427 30.1402 10.2711 30.6593C10.3592 32.2494 22.9323 38.1083 24.4133 38.7936C25.8431 38.9538 27.9979 39.6806 27.9126 41.2677C26.2667 41.953 24.9249 40.7574 24.0665 39.5352C19.5438 37.4557 13.7334 35.1981 9.38136 32.4066Z" fill="#3A3F4E"/>
<path fill-rule="evenodd" clip-rule="evenodd" d="M4.40074 37.4824C4.1847 37.9125 3.9715 38.4643 3.92886 38.7936C3.7583 40.0929 1.77414 39.998 2.4251 37.8502C0.318702 38.4791 2.55302 36.1623 2.53881 36.1385C2.26592 35.6639 1.89353 34.8659 2.43932 34.4298C2.70937 34.2162 2.98226 34.2459 3.23526 34.3764C3.30917 34.0085 3.48541 33.6644 3.92318 33.6496C4.70206 33.6229 4.76744 34.8095 4.92379 35.3613C5.41272 37.0493 20.3963 39.9713 22.1644 40.3125C23.7421 40.0989 26.2436 40.3036 26.5421 42.0331C24.9389 43.2138 23.1992 42.2882 21.9711 41.2024C16.5929 40.1819 9.77903 39.3157 4.40074 37.4824Z" fill="#76A9D7"/>
<path fill-rule="evenodd" clip-rule="evenodd" d="M7.62682 42.6441C7.50174 43.0387 7.39372 43.5371 7.39941 43.8189C7.42499 44.9402 5.73646 45.142 6.00651 43.2345C4.30945 44.0651 5.89565 41.7898 5.87859 41.772C5.5858 41.41 5.16793 40.79 5.57158 40.3421C5.77057 40.1226 6.00651 40.1107 6.23676 40.1849C6.25098 39.8645 6.35615 39.5471 6.72286 39.4729C7.37666 39.3394 7.58702 40.3332 7.79169 40.7752C8.4256 42.1309 21.4677 42.4721 23.0027 42.5077C24.3075 42.1042 26.448 41.9203 26.9255 43.3413C25.7259 44.5665 24.1341 44.0295 22.9544 43.2879C18.2811 43.1959 12.4081 43.4303 7.62682 42.6441Z" fill="#3A3F4E"/>
<path fill-rule="evenodd" clip-rule="evenodd" d="M4.60261 48.2895C4.55428 48.7523 4.54575 49.3248 4.61682 49.6363C4.8954 50.8615 3.08748 51.4934 2.95671 49.3337C1.27955 50.6598 2.51042 47.7763 2.49052 47.7585C2.08971 47.4322 1.48991 46.8537 1.83387 46.2634C2.00443 45.9726 2.26027 45.9014 2.52747 45.9281C2.47062 45.5721 2.5161 45.1984 2.89986 45.0293C3.58778 44.7237 4.03976 45.765 4.36382 46.2011C5.36159 47.536 19.7539 44.7326 21.451 44.4004C22.7927 43.638 25.1009 42.9171 25.9452 44.3588C24.9019 45.9964 23.0343 45.7946 21.5761 45.2666C16.4223 46.299 10.0292 47.9869 4.60261 48.2895Z" fill="#76A9D7"/>
<path fill-rule="evenodd" clip-rule="evenodd" d="M8.38353 52.5465C8.41196 52.9618 8.49439 53.4632 8.60241 53.7242C9.03734 54.7536 7.54779 55.611 7.09865 53.7391C5.83083 55.1838 6.46759 52.4457 6.44769 52.4368C6.04687 52.2172 5.43002 51.8108 5.64322 51.2353C5.7484 50.9535 5.96159 50.8467 6.20038 50.8259C6.0952 50.5233 6.07814 50.1881 6.38799 49.9745C6.94515 49.5889 7.50231 50.4284 7.8548 50.7547C8.93785 51.7574 21.1328 46.8804 22.5683 46.3049C23.6286 45.412 25.5417 44.3915 26.5054 45.5128C25.8431 47.1266 24.1744 47.2631 22.8128 47.0436C18.4465 48.8146 13.0995 51.3718 8.38353 52.5465Z" fill="#3A3F4E"/>
<path fill-rule="evenodd" clip-rule="evenodd" d="M7.17525 59.2776C7.30885 59.7523 7.52205 60.3159 7.71251 60.5888C8.46297 61.6686 6.94215 63.054 5.97281 60.9982C4.84997 63.0066 4.92956 59.6633 4.90398 59.6573C4.38661 59.509 3.57362 59.1975 3.68164 58.4766C3.73565 58.1206 3.95737 57.9427 4.23027 57.8537C4.03697 57.5303 3.93463 57.1476 4.24448 56.8154C4.7988 56.225 5.64591 57.0497 6.132 57.3375C7.62723 58.2185 20.6039 49.3664 22.1304 48.3221C23.1452 47.0079 25.1209 45.3229 26.5052 46.3731C26.1243 48.4171 24.2198 49.0133 22.5881 49.1172C17.9517 52.3121 12.3602 56.6789 7.17525 59.2776Z" fill="#76A9D7"/>
<path fill-rule="evenodd" clip-rule="evenodd" d="M14.7909 59.4319C14.933 59.7226 15.1377 60.0638 15.2912 60.218C15.9052 60.8262 15.0751 61.9208 14.2053 60.7045C13.7078 62.1522 13.3724 59.9688 13.3525 59.9659C12.9972 59.9362 12.4343 59.8324 12.4201 59.3518C12.4144 59.1145 12.5367 58.9691 12.7044 58.8771C12.5395 58.6902 12.4315 58.4529 12.5935 58.2008C12.8863 57.7469 13.5316 58.177 13.8841 58.3016C14.9586 58.6873 22.3807 51.2917 23.2534 50.4165C23.7623 49.4346 24.8539 48.0878 25.8772 48.598C25.8658 49.9775 24.6947 50.6034 23.6457 50.8763C20.9992 53.5403 17.8666 57.0853 14.7909 59.4319Z" fill="#3A3F4E"/>
<path fill-rule="evenodd" clip-rule="evenodd" d="M16.3799 64.0211C16.6102 64.3415 16.9257 64.7034 17.1446 64.8547C18.0088 65.451 17.2327 66.955 15.9336 65.6824C15.6295 67.5394 14.7767 64.9793 14.7568 64.9823C14.3218 65.0238 13.6197 65.0268 13.506 64.4483C13.4491 64.1635 13.5685 63.9618 13.7533 63.8134C13.5174 63.6236 13.3354 63.3625 13.4804 63.0214C13.7391 62.4073 14.6089 62.7841 15.0581 62.8582C16.4339 63.0837 23.8731 52.5109 24.7487 51.262C25.1609 49.9626 26.2013 48.0967 27.5401 48.4823C27.8074 50.1495 26.5253 51.1641 25.3144 51.7277C22.6622 55.5338 19.6092 60.5057 16.3799 64.0211Z" fill="#76A9D7"/>
<path fill-rule="evenodd" clip-rule="evenodd" d="M24.8536 68.9901C25.1776 69.1829 25.5955 69.3817 25.8457 69.4291C26.8377 69.616 26.6985 71.2714 25.0696 70.6543C25.4818 72.4372 23.7762 70.4912 23.7563 70.5001C23.3839 70.7107 22.7585 70.9955 22.4402 70.5268C22.2838 70.2954 22.3179 70.064 22.426 69.8593C22.1445 69.7851 21.8859 69.6249 21.8887 69.26C21.8944 68.6074 22.8097 68.5926 23.239 68.4798C24.5523 68.1268 27.3039 55.6851 27.6252 54.2167C27.5143 52.8877 27.7559 50.8022 29.0948 50.6093C29.9476 51.9918 29.1772 53.4157 28.3017 54.4065C27.3409 58.8771 26.4455 64.5521 24.8536 68.9901Z" fill="#76A9D7"/>
<path fill-rule="evenodd" clip-rule="evenodd" d="M28.9784 71.4256C29.3621 71.5621 29.8482 71.6808 30.1268 71.6748C31.2241 71.6541 31.4088 73.4548 29.5441 73.1551C30.3457 74.9677 28.1313 73.2649 28.1114 73.2797C27.756 73.5883 27.1449 74.0303 26.7128 73.5971C26.4996 73.3836 26.4882 73.1314 26.565 72.8881C26.2494 72.8703 25.9424 72.7576 25.8714 72.366C25.7463 71.6689 26.7185 71.4523 27.1534 71.2358C28.4838 70.5713 28.9073 56.6849 28.9528 55.0473C28.5662 53.653 28.4013 51.3747 29.7942 50.8734C30.9853 52.1609 30.448 53.8518 29.7146 55.1007C29.5924 60.0845 29.78 66.338 28.9784 71.4256Z" fill="#76A9D7"/>
<path fill-rule="evenodd" clip-rule="evenodd" d="M32.6875 67.7945C33.0144 67.8479 33.418 67.8746 33.6398 67.8301C34.5153 67.6581 34.8991 69.0731 33.3669 69.0969C34.2453 70.4348 32.2497 69.3846 32.2383 69.3994C31.9939 69.6961 31.5646 70.1381 31.161 69.8504C30.962 69.7109 30.9222 69.5092 30.9506 69.3045C30.6976 69.3342 30.4361 69.2867 30.3281 68.9841C30.1348 68.4442 30.8881 68.1327 31.2065 67.8984C32.1843 67.1775 30.7118 56.0084 30.5356 54.6913C30.0438 53.6322 29.6174 51.8315 30.6635 51.2323C31.7835 52.0926 31.576 53.5225 31.1525 54.626C31.6954 58.6338 32.6647 63.6117 32.6875 67.7945Z" fill="#76A9D7"/>
<path fill-rule="evenodd" clip-rule="evenodd" d="M38.0777 71.7341C38.4984 71.7193 39.0101 71.6511 39.2773 71.5413C40.3319 71.1082 41.1393 72.7784 39.229 73.1937C40.6361 74.6473 37.8986 73.8344 37.8873 73.8552C37.6513 74.2883 37.2136 74.9469 36.6422 74.6918C36.3608 74.5672 36.2641 74.3269 36.2527 74.0599C35.9429 74.1637 35.6046 74.1667 35.4 73.8166C35.0361 73.1877 35.9031 72.6093 36.2499 72.2384C37.3074 71.0904 32.8899 57.4828 32.3668 55.8809C31.5084 54.6765 30.5561 52.5317 31.7301 51.523C33.3305 52.3181 33.3987 54.1573 33.123 55.6465C34.7262 60.5206 37.0856 66.5041 38.0777 71.7341Z" fill="#3A3F4E"/>
<path fill-rule="evenodd" clip-rule="evenodd" d="M41.577 66.872C41.9351 66.783 42.3615 66.6317 42.5719 66.4893C43.4048 65.9257 44.3741 67.2102 42.805 67.9132C44.2519 68.9011 41.7731 68.7053 41.7646 68.7261C41.6338 69.1384 41.3695 69.7851 40.8379 69.6694C40.5764 69.6131 40.4513 69.4262 40.3973 69.2007C40.1471 69.3461 39.86 69.4114 39.6269 69.1473C39.209 68.6756 39.8572 68.023 40.0903 67.6403C40.8038 66.4656 34.7461 55.608 34.0297 54.3324C33.0945 53.4573 31.9205 51.793 32.7562 50.7132C34.26 51.1048 34.6267 52.6682 34.6381 53.9942C36.8354 57.8715 39.8543 62.5705 41.577 66.872Z" fill="#76A9D7"/>
<path fill-rule="evenodd" clip-rule="evenodd" d="M14.6031 30.0007C14.3359 30.2262 14.0346 30.5317 13.9123 30.7394C13.4291 31.5641 12.1158 30.8877 13.1675 29.6388C11.5671 29.4133 13.7332 28.5412 13.7304 28.5174C13.6821 28.114 13.6565 27.4613 14.1483 27.3338C14.3899 27.2715 14.5661 27.3783 14.6997 27.5444C14.8532 27.3189 15.0721 27.141 15.3706 27.2655C15.905 27.488 15.6094 28.3098 15.5611 28.731C15.4132 30.0215 24.6945 36.625 25.7889 37.3993C26.9146 37.7434 28.5434 38.6541 28.2535 39.9149C26.835 40.2175 25.9254 39.0517 25.4051 37.9422C22.065 35.5927 17.7101 32.902 14.6031 30.0007Z" fill="#76A9D7"/>
<path fill-rule="evenodd" clip-rule="evenodd" d="M43.4901 63.6533C43.7886 63.5257 44.1382 63.3329 44.3002 63.1786C44.9455 62.5705 45.9575 63.5435 44.6925 64.3801C46.0769 65.0268 43.9023 65.2137 43.8994 65.2345C43.8397 65.6112 43.6976 66.2075 43.2229 66.1838C42.9898 66.1719 42.8562 66.0295 42.7794 65.8426C42.5833 66.0028 42.3417 66.1037 42.1057 65.9079C41.6822 65.5608 42.154 64.8992 42.3075 64.5344C42.7709 63.413 36.0793 54.8871 35.289 53.8844C34.3623 53.2615 33.1229 51.9888 33.7057 50.9327C35.0616 51.0543 35.5847 52.3537 35.7723 53.5017C38.1857 56.5425 41.4263 60.1765 43.4901 63.6533Z" fill="#3A3F4E"/>
<path fill-rule="evenodd" clip-rule="evenodd" d="M50.4573 64.3712C50.8069 64.1279 51.2049 63.7868 51.3755 63.5435C52.0492 62.5912 53.5814 63.5643 52.1742 64.9734C54.1044 65.4273 51.3698 66.252 51.3726 66.2787C51.3925 66.777 51.3556 67.578 50.7416 67.6759C50.4402 67.7234 50.2356 67.575 50.0906 67.3585C49.8802 67.6166 49.596 67.8094 49.2435 67.6255C48.6153 67.2932 49.0587 66.3232 49.161 65.8159C49.4737 64.2584 38.8167 55.163 37.5602 54.0921C36.2213 53.5462 34.3253 52.2528 34.8057 50.7458C36.5681 50.5352 37.5602 52.057 38.0804 53.4721C41.9208 56.7145 46.9608 60.485 50.4573 64.3712Z" fill="#76A9D7"/>
<path fill-rule="evenodd" clip-rule="evenodd" d="M50.9606 57.9783C51.2107 57.6994 51.4865 57.3286 51.5888 57.0883C51.9868 56.142 53.4706 56.6582 52.5354 58.1414C54.2609 58.1355 52.0919 59.3933 52.0948 59.4141C52.2028 59.8353 52.3222 60.5236 51.819 60.7312C51.5717 60.8351 51.3699 60.749 51.205 60.5918C51.0743 60.8558 50.8668 61.0753 50.5342 60.9893C49.9372 60.8351 50.1334 59.9214 50.1277 59.4675C50.1049 58.0791 39.3427 52.502 38.072 51.8494C36.8326 51.6565 34.9764 50.9416 35.1071 49.5622C36.5654 49.0252 37.6939 50.1199 38.4018 51.2175C42.2706 53.1962 47.2594 55.3796 50.9606 57.9783Z" fill="#3A3F4E"/>
<path fill-rule="evenodd" clip-rule="evenodd" d="M55.3186 53.9052C55.546 53.5373 55.7848 53.0597 55.8473 52.766C56.106 51.6121 57.8827 51.8731 57.1208 53.748C59.0652 53.3682 56.8678 55.255 56.8792 55.2787C57.0867 55.7296 57.3568 56.4802 56.8309 56.8243C56.5722 56.9934 56.3277 56.9429 56.1117 56.8005C56.015 57.1239 55.8274 57.4176 55.4351 57.3939C54.733 57.3494 54.77 56.2755 54.6733 55.7652C54.3691 54.2048 41.1338 50.2563 39.5732 49.7936C38.1376 49.844 35.9062 49.4435 35.7754 47.8594C37.3133 46.9368 38.8028 47.9246 39.8176 49.0104C44.5762 50.3987 50.6339 51.7811 55.3186 53.9052Z" fill="#76A9D7"/>
<path fill-rule="evenodd" clip-rule="evenodd" d="M58.2119 47.3016C58.3284 46.9635 58.4336 46.5392 58.4336 46.293C58.4364 45.3259 59.8976 45.1924 59.6218 46.8329C61.1028 46.1595 59.6844 48.0789 59.6986 48.0967C59.9402 48.4141 60.287 48.9599 59.9288 49.3367C59.7526 49.5206 59.5479 49.5266 59.3518 49.4554C59.3319 49.7312 59.2352 50.0012 58.9168 50.0576C58.3512 50.1555 58.192 49.2952 58.0242 48.9065C57.5097 47.7229 46.2784 47.1029 44.9566 47.0317C43.8224 47.3461 41.9747 47.4529 41.5938 46.2159C42.6569 45.1895 44.0157 45.6908 45.0135 46.3612C49.0415 46.56 54.1071 46.5036 58.2119 47.3016Z" fill="#76A9D7"/>
<path fill-rule="evenodd" clip-rule="evenodd" d="M57.5785 16.233C57.3767 15.9927 57.1009 15.7227 56.9162 15.6159C56.1884 15.1947 56.72 13.9428 57.8343 14.8743C57.9651 13.3673 58.8008 15.3608 58.8179 15.3578C59.1618 15.2955 59.7218 15.2481 59.8498 15.7019C59.9123 15.9274 59.8299 16.0965 59.6906 16.227C59.8896 16.3635 60.0516 16.5593 59.9578 16.8441C59.7872 17.3513 59.0709 17.1081 58.707 17.0784C57.5927 16.9894 52.2855 25.9336 51.6629 26.9897C51.4099 28.0547 50.6936 29.618 49.5992 29.3955C49.2836 28.0814 50.2473 27.1825 51.1825 26.6515C53.0672 23.4357 55.2106 19.2559 57.5785 16.233Z" fill="#3A3F4E"/>
<path fill-rule="evenodd" clip-rule="evenodd" d="M74.2189 18.093C74.0882 17.6302 73.8778 17.0844 73.6987 16.8203C72.9881 15.7791 74.3639 14.3878 75.2963 16.3842C76.2941 14.3937 76.2827 17.6688 76.3083 17.6747C76.7887 17.8082 77.5448 18.0989 77.4596 18.8079C77.4169 19.158 77.2151 19.336 76.9649 19.4279C77.1497 19.7424 77.2492 20.1162 76.9706 20.4455C76.4703 21.0358 75.6744 20.2467 75.2196 19.9738C73.8238 19.1431 62.0126 28.0814 60.6226 29.1404C59.7101 30.4487 57.9192 32.1426 56.6201 31.1399C56.9357 29.1285 58.6782 28.5056 60.1848 28.3691C64.4033 25.1415 69.4831 20.748 74.2189 18.093Z" fill="#76A9D7"/>
<path fill-rule="evenodd" clip-rule="evenodd" d="M60.3441 35.7499C60.2986 35.4621 60.2133 35.115 60.1223 34.94C59.7585 34.2488 60.7506 33.5517 61.1741 34.8332C61.9757 33.7415 61.6915 35.6965 61.7085 35.7024C62.0013 35.83 62.4562 36.0762 62.3424 36.4915C62.2856 36.6962 62.1435 36.7852 61.9757 36.8149C62.0667 37.0196 62.098 37.2539 61.8933 37.423C61.5266 37.7286 61.086 37.1768 60.8216 36.9691C60.0058 36.3373 51.7564 40.529 50.7842 41.0274C50.0935 41.7216 48.8143 42.5581 48.0752 41.8343C48.4447 40.6625 49.6045 40.4608 50.571 40.526C53.5189 39.0072 57.1148 36.8772 60.3441 35.7499Z" fill="#3A3F4E"/>
<path fill-rule="evenodd" clip-rule="evenodd" d="M51.5457 3.56875C51.1733 3.28396 50.69 2.98434 50.3859 2.88941C49.1948 2.51859 49.5814 0.510235 51.4973 1.4981C51.2244 -0.747582 53.0579 1.88375 53.0835 1.87188C53.5668 1.66719 54.3712 1.40613 54.6981 2.02911C54.8602 2.33466 54.7891 2.61055 54.6271 2.84788C54.9625 2.9784 55.2553 3.21276 55.2041 3.65774C55.1132 4.45575 53.9903 4.34302 53.4502 4.42311C51.7958 4.66637 46.7984 19.5199 46.2157 21.2702C46.1759 22.9136 45.6102 25.4352 43.9444 25.4797C43.0774 23.6642 44.2088 22.0296 45.4112 20.9409C47.1793 15.607 49.0185 8.78098 51.5457 3.56875Z" fill="#76A9D7"/>
<path fill-rule="evenodd" clip-rule="evenodd" d="M75.4099 8.34489C75.3246 8.06603 75.191 7.73674 75.0744 7.57655C74.6168 6.94764 75.498 6.10514 76.0978 7.30956C76.7345 6.10514 76.7345 8.08383 76.7487 8.0868C77.0586 8.16689 77.5418 8.33895 77.4878 8.7691C77.4622 8.97973 77.3315 9.08949 77.1723 9.14585C77.2917 9.33571 77.3571 9.56117 77.178 9.75993C76.8596 10.1189 76.3451 9.64127 76.0523 9.47811C75.154 8.97973 67.5954 14.4085 66.7057 15.0493C66.1229 15.8414 64.9773 16.8678 64.1416 16.2685C64.3406 15.0523 65.4577 14.6725 66.4214 14.5865C69.1276 12.6256 72.3767 9.95869 75.4099 8.34489Z" fill="#76A9D7"/>
<path fill-rule="evenodd" clip-rule="evenodd" d="M31.3575 37.9718C35.4253 37.9718 38.7228 41.413 38.7228 45.6582C38.7228 49.9033 35.4253 53.3445 31.3575 53.3445C27.2897 53.3445 23.9922 49.9033 23.9922 45.6582C23.9922 41.413 27.2897 37.9718 31.3575 37.9718Z" fill="#083363"/>
</svg>
